<svg width="68" height="61" viewBox="0 0 68 61" fill="none" xmlns="http://www.w3.org/2000/svg">
<path fill-rule="evenodd" clip-rule="evenodd" d="M7.3185 0.29908C3.88344 1.20342 1.18165 3.93869 0.299321 7.40534C0.00819645 8.54915 0 9.18442 0 30.4967C0 51.8089 0.00819645 52.4442 0.299321 53.588C0.997839 56.3324 2.8815 58.7066 5.31766 59.9134C7.6503 61.0691 5.61622 60.9965 35.7803 60.9996C62.8305 61.0022 62.8331 61.0022 63.801 60.6828C65.6101 60.0859 67.0882 58.6006 67.6822 56.7827C67.9674 55.9096 68 55.4506 68 52.3049V48.8L61.5112 48.7988C57.6988 48.7981 54.6154 48.7315 54.0357 48.6371C47.5815 47.5862 43.0279 41.5695 43.8339 35.157C44.191 32.316 45.4252 29.8466 47.4684 27.8849C48.8099 26.597 50.0366 25.7958 51.5511 25.2181C53.4926 24.4776 54.3513 24.4067 61.4353 24.4009L68 24.3955V20.8906C68 17.7449 67.9674 17.2859 67.6822 16.4129C67.0882 14.5949 65.6101 13.1096 63.801 12.5127C62.8332 12.1935 62.8232 12.1933 36.0398 12.1933C9.64856 12.1933 9.23798 12.1888 8.65846 11.8918C7.76566 11.4341 7.36161 10.7638 7.36161 9.741C7.36161 9.05218 7.43947 8.7877 7.77052 8.35162C8.62371 7.2275 6.62454 7.31261 32.2015 7.31154C48.4902 7.31093 55.3508 7.26181 55.7812 7.14239C56.5976 6.91588 57.8911 5.61604 58.1165 4.79575C58.3293 4.02106 58.3293 3.28252 58.1165 2.50783C57.8911 1.68754 56.5976 0.387698 55.7812 0.161195C55.3499 0.0416131 48.4052 -0.00506047 31.7991 0.000430521C9.29824 0.00759932 8.38282 0.0187338 7.3185 0.29908ZM54.0527 29.5176C50.2042 30.5577 47.8231 34.562 48.8038 38.3454C49.4858 40.9762 51.5088 43.0025 54.1409 43.6915C54.8459 43.8761 56.2377 43.9191 61.5051 43.9191H68V36.5978V29.2764L61.4353 29.2865C56.2047 29.2944 54.7043 29.3414 54.0527 29.5176Z" fill="white"/>
</svg>
